<?xml version="1.0" encoding="iso-8859-1"?>
<!-- Generator: Adobe Illustrator 18.1.1, SVG Export Plug-In . SVG Version: 6.00 Build 0)  -->
<svg version="1.1" id="Capa_1" xmlns="http://www.w3.org/2000/svg" xmlns:xlink="http://www.w3.org/1999/xlink" x="0px" y="0px"
	 viewBox="0 0 33.165 33.165" style="enable-background:new 0 0 33.165 33.165;" xml:space="preserve">
<g>
	<g id="c172_graphic">
		<path d="M31.626,4.433H1.536C0.688,4.433,0,5.22,0,6.194v20.784c0,0.969,0.688,1.755,1.536,1.755h30.09
			c0.852,0,1.539-0.786,1.539-1.755V6.194C33.165,5.22,32.478,4.433,31.626,4.433z M30.21,25.125c0,0.796-0.566,1.442-1.267,1.442
			H4.221c-0.696,0-1.263-0.646-1.263-1.442V8.045c0-0.798,0.566-1.445,1.263-1.445h24.723c0.7,0,1.267,0.647,1.267,1.445v17.08
			H30.21z"/>
		<polygon points="24.31,13.973 24.31,13.973 22.849,16.531 20.776,15.35 20.78,15.349 16.31,12.787 15.48,14.238 14.064,16.629 
			9.999,14.161 8.951,15.894 8.939,15.89 4.737,22.478 6.563,23.749 10.612,17.141 12.929,18.549 12.927,18.556 14.844,19.69 
			17.131,15.826 19.177,16.998 19.173,17.002 23.644,19.562 23.662,19.537 23.689,19.551 25.871,15.732 25.873,15.732 
			28.431,11.259 26.493,10.15 		"/>
	</g>
	<g id="Capa_1_214_">
	</g>
</g>
</svg>
